<?xml version="1.0" standalone="no"?>
<!DOCTYPE svg PUBLIC "-//W3C//DTD SVG 20010904//EN"
 "http://www.w3.org/TR/2001/REC-SVG-20010904/DTD/svg10.dtd">
<svg version="1.0" xmlns="http://www.w3.org/2000/svg"
 width="518.000000pt" height="218.000000pt" viewBox="0 0 518.000000 218.000000"
 preserveAspectRatio="xMidYMid meet">

<g transform="translate(0.000000,218.000000) scale(0.100000,-0.100000)"
fill="#000000" stroke="none">
<path d="M763 1950 c-91 -21 -154 -95 -161 -190 -9 -120 50 -198 156 -207 126
-12 241 140 203 268 -27 90 -116 148 -198 129z"/>
<path d="M3270 1690 c0 -39 -1 -40 -34 -40 -19 0 -44 -8 -56 -18 -30 -24 -38
-97 -16 -140 15 -30 20 -32 70 -32 89 0 86 -5 86 141 l0 129 -25 0 c-22 0 -25
-4 -25 -40z m0 -134 c0 -59 -15 -75 -51 -56 -14 8 -19 21 -19 48 0 44 14 62
47 62 21 0 23 -4 23 -54z"/>
<path d="M2400 1591 l0 -131 25 0 26 0 -3 128 c-3 123 -4 127 -25 130 -23 3
-23 3 -23 -127z"/>
<path d="M2530 1591 l0 -131 24 0 c22 0 25 5 28 43 l3 42 54 5 c40 4 58 12 72
29 26 32 24 74 -5 108 -21 25 -31 28 -100 31 l-76 4 0 -131z m138 62 c19 -36
-5 -63 -55 -63 -32 0 -33 2 -33 40 0 40 0 40 40 40 27 0 42 -5 48 -17z"/>
<path d="M2815 1695 c-34 -33 -33 -77 1 -104 15 -12 37 -21 50 -21 44 0 76
-18 72 -43 -4 -31 -68 -37 -95 -8 -17 19 -22 19 -39 7 -19 -14 -18 -15 5 -40
21 -22 33 -26 80 -26 31 0 64 6 73 14 29 21 38 58 23 93 -12 28 -20 33 -75 44
-66 13 -86 33 -55 55 26 19 52 17 73 -4 26 -26 68 -12 52 18 -15 28 -42 40
-95 40 -35 0 -51 -6 -70 -25z"/>
<path d="M3413 1636 c-38 -28 -43 -125 -7 -161 21 -21 107 -20 129 1 25 26 4
38 -38 23 -29 -10 -39 -10 -51 0 -33 28 -19 41 44 41 l60 0 0 33 c0 18 -6 41
-13 51 -18 25 -95 32 -124 12z m78 -26 c34 -19 23 -40 -21 -40 -43 0 -55 20
-22 39 21 13 20 13 43 1z"/>
<path d="M345 1542 c-108 -52 -159 -188 -108 -287 43 -82 123 -135 234 -155
131 -24 268 13 497 134 l33 17 -176 121 c-98 66 -207 134 -244 151 -84 40
-176 47 -236 19z"/>
<path d="M2610 1323 c-107 -14 -201 -30 -207 -35 -7 -6 -13 -28 -13 -49 l0
-39 80 0 80 0 0 -163 c0 -113 4 -167 12 -175 7 -7 31 -12 55 -12 l43 0 0 174
0 174 60 4 c80 6 100 24 100 95 0 29 -3 53 -7 52 -5 -1 -96 -12 -203 -26z"/>
<path d="M2985 1305 c-51 -18 -127 -99 -143 -152 -39 -132 42 -275 174 -304
88 -20 156 0 219 65 31 31 55 67 63 92 58 195 -122 366 -313 299z m139 -115
c14 -5 35 -24 46 -42 51 -85 -4 -188 -100 -188 -117 0 -165 157 -68 224 25 18
84 21 122 6z"/>
<path d="M3423 1308 l-43 -9 0 -184 c0 -111 4 -194 11 -208 16 -36 61 -57 132
-64 115 -10 205 36 251 129 66 132 5 284 -133 333 -48 17 -152 18 -218 3z
m228 -146 c50 -56 33 -154 -31 -187 -43 -22 -107 -20 -120 4 -11 22 -14 179
-4 206 6 14 17 16 67 13 52 -4 64 -9 88 -36z"/>
<path d="M4021 1306 c-133 -48 -193 -209 -125 -337 68 -127 223 -166 341 -85
124 85 139 261 32 367 -67 65 -161 87 -248 55z m158 -132 c57 -47 59 -134 5
-185 -21 -19 -36 -24 -80 -24 -46 0 -58 4 -84 30 -79 80 -26 204 87 205 30 0
50 -7 72 -26z"/>
<path d="M4511 1308 c-74 -21 -111 -66 -111 -135 0 -81 32 -106 195 -149 79
-21 97 -46 48 -65 -32 -12 -141 2 -199 26 l-34 14 0 -45 c0 -80 73 -121 195
-111 87 6 142 37 167 94 41 93 -5 158 -133 187 -100 23 -119 32 -119 55 0 36
107 39 204 5 21 -8 40 -14 42 -14 2 0 4 19 4 43 0 50 -23 77 -79 96 -40 13
-132 13 -180 -1z"/>
<path d="M1290 880 c-13 -8 -12 -10 3 -10 9 0 17 5 17 10 0 12 -1 12 -20 0z"/>
<path d="M1758 440 c-2 -22 -1 -64 3 -93 5 -44 6 -38 8 41 1 95 -4 122 -11 52z"/>
<path d="M4254 390 c0 -52 1 -74 3 -47 2 26 2 68 0 95 -2 26 -3 4 -3 -48z"/>
<path d="M898 440 c-26 -27 -30 -36 -25 -68 8 -49 38 -72 91 -70 l41 1 -40 4
c-53 6 -75 27 -75 73 0 50 19 72 71 80 l44 7 -38 2 c-31 1 -45 -5 -69 -29z"/>
<path d="M1355 460 c-3 -6 1 -7 9 -4 18 7 21 14 7 14 -6 0 -13 -4 -16 -10z"/>
<path d="M2007 463 l32 -4 4 -82 3 -82 2 82 c2 81 2 82 30 86 15 2 -2 4 -38 4
-36 0 -51 -2 -33 -4z"/>
<path d="M2143 448 c-27 -30 -34 -63 -21 -99 18 -52 88 -67 124 -28 29 32 26
105 -5 130 -31 26 -73 24 -98 -3z m91 -4 c18 -18 21 -85 6 -115 -15 -28 -74
-26 -94 3 -36 50 -9 128 44 128 16 0 36 -7 44 -16z"/>
<path d="M2310 385 l0 -85 39 0 c58 0 91 31 91 83 0 23 -4 47 -8 53 -13 19
-50 34 -86 34 l-36 0 0 -85z m100 55 c12 -12 20 -33 20 -55 0 -46 -29 -75 -75
-75 l-35 0 0 75 0 75 35 0 c22 0 43 -8 55 -20z"/>
<path d="M2499 444 c-32 -34 -32 -100 1 -126 30 -25 82 -23 106 3 29 32 26
105 -5 130 -33 27 -73 24 -102 -7z m93 -1 c23 -21 24 -89 1 -115 -38 -42 -103
-10 -103 51 0 70 56 105 102 64z"/>
<path d="M2676 454 c-25 -25 -19 -42 25 -69 30 -20 39 -32 37 -48 -2 -17 -12
-23 -43 -28 l-40 -6 42 -2 c33 -1 45 3 53 19 14 26 -1 55 -38 72 -19 9 -27 21
-27 38 0 21 6 26 35 31 l35 6 -32 2 c-17 0 -39 -6 -47 -15z"/>
<path d="M2864 385 c0 -49 1 -71 3 -48 2 23 2 64 0 90 -2 26 -3 8 -3 -42z"/>
<path d="M3765 460 c-3 -5 -1 -10 4 -10 6 0 11 5 11 10 0 6 -2 10 -4 10 -3 0
-8 -4 -11 -10z"/>
<path d="M1261 438 c0 -10 -7 -18 -13 -18 -10 0 -10 -2 -1 -8 6 -4 13 -30 15
-57 2 -40 7 -51 22 -53 18 -4 19 -3 3 13 -10 10 -17 32 -17 55 0 32 4 39 23
43 22 4 22 4 0 6 -12 0 -24 9 -26 19 -4 16 -5 16 -6 0z"/>
<path d="M3071 438 c0 -10 -7 -18 -13 -18 -10 0 -10 -2 -1 -8 6 -4 13 -30 15
-57 2 -41 7 -50 23 -53 18 -2 18 -2 3 8 -13 8 -18 24 -18 55 0 37 3 44 23 48
22 4 22 4 0 6 -12 0 -24 9 -26 19 -4 16 -5 16 -6 0z"/>
<path d="M1065 411 c38 -8 48 -41 12 -41 -13 0 -32 -9 -42 -20 -15 -16 -15
-22 -5 -35 7 -8 18 -15 24 -15 6 0 6 4 -2 9 -23 14 -10 46 21 49 21 3 27 -1
27 -17 0 -11 -8 -24 -17 -30 -14 -7 -12 -9 10 -8 23 2 27 6 27 34 0 17 -4 43
-10 57 -8 21 -16 26 -42 25 l-33 -1 30 -7z"/>
<path d="M1161 363 c-1 -36 3 -63 9 -63 6 0 10 19 10 42 0 25 7 50 18 62 17
21 17 21 -5 3 -21 -18 -21 -18 -26 0 -3 10 -5 -10 -6 -44z"/>
<path d="M1375 411 c38 -8 48 -41 12 -41 -13 0 -31 -8 -41 -19 -19 -21 -12
-51 13 -51 13 0 13 2 3 9 -23 14 -10 46 21 49 26 3 28 1 25 -24 -2 -15 2 -29
7 -31 13 -4 7 87 -7 105 -6 6 -22 11 -37 11 -25 -1 -25 -2 4 -8z"/>
<path d="M1481 401 c-12 -12 -21 -29 -21 -39 0 -23 28 -62 43 -62 7 0 4 5 -5
11 -24 13 -25 84 -2 93 28 11 52 6 58 -10 12 -31 6 -73 -11 -84 -12 -8 -13
-10 -3 -7 8 2 21 16 28 30 30 61 -40 115 -87 68z"/>
<path d="M1676 398 c-9 -12 -16 -29 -16 -38 0 -30 30 -60 58 -59 l27 2 -25 4
c-30 6 -40 19 -40 54 0 29 13 44 45 52 16 4 14 5 -7 6 -17 1 -32 -7 -42 -21z"/>
<path d="M1826 398 c-34 -48 -6 -99 52 -97 l37 2 -40 6 c-32 5 -41 11 -43 29
-3 20 1 22 42 22 25 0 46 3 46 8 0 14 -31 52 -43 52 -7 0 -4 -5 6 -11 30 -18
21 -39 -18 -39 -39 0 -48 21 -17 39 9 6 12 11 5 11 -6 0 -19 -10 -27 -22z"/>
<path d="M2923 360 c0 -50 1 -55 4 -20 3 24 10 51 16 59 9 11 9 13 0 8 -6 -4
-14 -1 -16 5 -3 7 -5 -16 -4 -52z"/>
<path d="M2978 410 c19 -8 22 -17 22 -60 0 -27 5 -50 10 -50 13 0 13 76 0 101
-6 10 -21 19 -33 18 l-22 0 23 -9z"/>
<path d="M3156 398 c-34 -48 -6 -99 52 -97 l37 2 -39 6 c-28 4 -41 12 -47 29
-8 21 -6 22 41 22 28 0 50 3 50 8 0 14 -31 52 -43 52 -7 0 -4 -5 6 -11 30 -18
21 -39 -18 -39 -39 0 -48 21 -17 39 9 6 12 11 5 11 -6 0 -19 -10 -27 -22z"/>
<path d="M3280 363 c0 -36 4 -63 10 -63 13 0 13 90 0 110 -7 11 -10 -3 -10
-47z"/>
<path d="M3315 410 c-3 -6 1 -7 9 -4 18 7 21 14 7 14 -6 0 -13 -4 -16 -10z"/>
<path d="M3370 363 c0 -36 4 -63 10 -63 13 0 13 90 0 110 -7 11 -10 -3 -10
-47z"/>
<path d="M3427 413 c23 -4 30 -19 36 -83 3 -26 4 -23 5 16 2 54 -10 75 -42 73
-19 -2 -19 -2 1 -6z"/>
<path d="M3553 413 c15 -2 27 -9 27 -14 0 -5 0 -12 1 -16 0 -5 -10 -11 -23
-15 -21 -5 -21 -6 6 -7 25 -1 27 -4 22 -25 -3 -14 -2 -28 4 -31 15 -9 13 88
-2 103 -7 7 -23 11 -37 11 -26 -2 -26 -2 2 -6z"/>
<path d="M3657 402 c-21 -23 -22 -66 -1 -86 8 -9 30 -15 47 -15 l32 2 -30 4
c-72 10 -75 86 -4 103 l34 8 -31 1 c-18 1 -38 -6 -47 -17z"/>
<path d="M3773 360 c0 -36 2 -50 4 -32 2 17 2 47 0 65 -2 17 -4 3 -4 -33z"/>
<path d="M3837 402 c-30 -33 -13 -102 26 -102 6 0 1 7 -11 16 -24 16 -28 44
-12 75 12 21 50 25 68 7 20 -20 14 -65 -10 -82 -16 -11 -18 -16 -7 -16 24 0
39 21 39 56 0 58 -57 86 -93 46z"/>
<path d="M3970 363 c0 -36 4 -63 10 -63 13 0 13 90 0 110 -7 11 -10 -3 -10
-47z"/>
<path d="M4027 413 c23 -4 30 -19 36 -83 3 -26 4 -23 5 16 2 54 -10 75 -42 73
-19 -2 -19 -2 1 -6z"/>
<path d="M4150 413 c41 -8 55 -43 17 -43 -49 0 -78 -55 -37 -68 13 -5 13 -3 1
11 -18 22 1 47 36 47 22 0 25 -4 21 -25 -3 -14 -1 -28 3 -31 14 -8 11 90 -3
104 -7 7 -23 11 -37 11 l-26 -2 25 -4z"/>
<path d="M3514 345 c-8 -19 2 -45 17 -45 9 0 9 3 0 14 -6 7 -9 21 -5 30 3 9 3
16 0 16 -4 0 -9 -7 -12 -15z"/>
</g>
</svg>
