<?xml version="1.0" standalone="no"?>
<!DOCTYPE svg PUBLIC "-//W3C//DTD SVG 20010904//EN"
 "http://www.w3.org/TR/2001/REC-SVG-20010904/DTD/svg10.dtd">
<svg version="1.0" xmlns="http://www.w3.org/2000/svg"
 width="2166.000000pt" height="584.000000pt" viewBox="0 0 2166.000000 584.000000"
 preserveAspectRatio="xMidYMid meet">

<g transform="translate(0.000000,584.000000) scale(0.100000,-0.100000)"
fill="#000000" stroke="none">
<path d="M2500 4984 c-734 -67 -1362 -437 -1765 -1039 -88 -131 -214 -389
-264 -540 -90 -273 -127 -527 -118 -810 11 -355 92 -674 247 -980 324 -642
919 -1093 1625 -1234 304 -61 659 -55 970 15 327 73 666 238 935 452 374 299
649 714 784 1185 123 426 114 911 -24 1342 -110 343 -289 640 -545 904 -362
374 -813 606 -1335 686 -102 15 -419 27 -510 19z m430 -245 c389 -48 758 -205
1065 -452 145 -117 336 -328 444 -489 l33 -51 -83 7 c-283 22 -409 28 -811 33
-357 5 -454 3 -479 -7 -44 -19 -84 -87 -120 -205 -86 -282 -100 -323 -134
-372 -22 -33 -51 -61 -76 -74 -83 -42 -209 -34 -285 17 l-35 24 18 -24 c47
-63 163 -116 255 -116 l49 0 49 -102 c26 -57 64 -155 85 -218 20 -63 38 -117
41 -121 4 -7 72 5 82 15 10 10 -97 246 -157 346 l-57 95 42 28 c39 25 114 121
114 146 0 40 53 6 184 -119 90 -86 237 -278 312 -408 3 -5 128 20 137 28 10 9
-89 129 -206 249 -97 98 -204 186 -325 266 -40 27 -71 53 -68 59 2 6 17 47 31
91 15 44 31 84 36 89 15 17 321 -104 513 -202 173 -88 453 -283 583 -405 l32
-30 68 13 c113 21 113 17 -8 103 -334 238 -640 389 -1046 517 l-133 41 25 47
c49 94 34 90 207 58 334 -62 669 -145 930 -230 144 -47 410 -150 444 -171 17
-11 25 -36 42 -127 44 -244 51 -374 31 -603 -22 -261 -91 -509 -209 -751 -79
-162 -115 -222 -216 -354 -85 -111 -286 -311 -396 -393 -237 -177 -553 -322
-803 -370 -44 -8 -107 -21 -140 -27 -33 -6 -118 -14 -190 -17 l-130 -5 -274
1353 c-150 745 -274 1358 -275 1364 0 5 67 23 149 39 83 16 169 35 193 43 59
20 94 69 98 136 3 49 3 50 -7 20 -24 -69 -46 -79 -282 -128 -268 -56 -288 -56
-333 -11 -29 29 -34 41 -34 81 0 40 5 52 33 79 31 31 41 34 282 80 138 27 265
55 283 64 19 9 44 34 57 56 28 48 43 116 26 116 -6 0 -11 -9 -11 -19 0 -26
-43 -76 -77 -90 -41 -16 -569 -121 -611 -121 -71 0 -132 65 -132 143 0 64 61
125 144 142 28 6 26 7 -32 35 -107 51 -176 141 -202 264 -14 68 -2 153 32 221
25 51 102 131 148 154 85 44 358 120 500 140 41 6 86 13 100 15 58 8 402 5
480 -5z m1135 -1074 c132 -19 298 -45 369 -58 l128 -22 43 -100 c23 -55 45
-110 49 -122 l7 -21 -78 24 c-298 93 -768 194 -1228 264 -171 26 -177 28 -150
43 33 19 108 24 370 26 238 1 262 -1 490 -34z m348 18 c83 -5 100 -9 108 -25
6 -11 9 -21 7 -23 -2 -2 -105 9 -228 24 l-225 29 120 1 c66 0 164 -2 218 -6z
m-3083 -194 c32 -14 91 -67 205 -184 130 -133 172 -169 218 -190 52 -24 62
-26 108 -16 63 14 100 33 149 77 l39 35 11 -42 c7 -23 10 -53 7 -65 -2 -13 -1
-21 3 -19 4 2 35 -134 69 -303 34 -169 64 -317 67 -328 5 -19 -7 -23 -176 -58
-100 -21 -184 -36 -186 -33 -10 10 -24 181 -24 298 0 162 5 186 39 194 75 18
174 117 196 195 6 21 2 19 -28 -15 -50 -58 -126 -96 -202 -103 -110 -8 -164
33 -354 268 -180 225 -197 230 -421 140 -85 -35 -212 -89 -282 -120 -71 -32
-128 -55 -128 -51 0 20 33 117 43 128 13 12 162 78 362 159 149 61 208 68 285
33z m-131 -233 c-2 -2 -84 -54 -182 -115 -98 -61 -232 -147 -298 -192 -67 -44
-123 -78 -126 -75 -3 3 0 44 8 92 l14 86 160 68 c241 102 346 139 389 140 22
0 37 -2 35 -4z m61 -23 c14 -9 39 -29 56 -45 l32 -30 -137 -118 c-223 -193
-412 -395 -553 -592 -50 -69 -56 -75 -63 -55 -3 12 -9 108 -12 213 l-6 190
130 97 c133 98 512 357 523 357 3 0 17 -7 30 -17z m161 -150 c24 -27 55 -60
68 -75 l23 -27 -65 -103 c-114 -182 -179 -325 -243 -536 -19 -64 -36 -118 -38
-119 -10 -10 -510 -103 -516 -96 -5 4 -11 24 -15 43 -5 31 3 51 66 160 96 169
183 298 278 411 82 98 372 389 388 389 5 0 29 -21 54 -47z m260 -223 c24 -11
56 -20 72 -20 15 0 27 -3 27 -7 0 -5 -7 -53 -15 -108 -8 -55 -15 -164 -15
-242 0 -140 0 -143 -22 -148 -13 -3 -110 -23 -215 -44 -226 -45 -205 -60 -168
128 33 161 80 302 145 430 l51 102 48 -35 c27 -20 68 -45 92 -56z"/>
<path d="M1810 4473 c-53 -59 -74 -118 -74 -198 0 -291 365 -402 535 -163 l22
30 -52 -35 c-60 -42 -106 -57 -172 -57 -101 0 -198 60 -247 154 -38 74 -38
180 0 254 15 29 25 52 24 52 -2 0 -19 -17 -36 -37z"/>
<path d="M5486 3846 c-54 -20 -92 -61 -105 -111 -15 -61 -15 -1504 0 -1560 8
-28 28 -56 66 -92 75 -70 112 -86 181 -81 49 4 60 10 92 45 54 57 60 100 60
407 l0 264 243 5 c265 5 319 14 435 70 35 17 87 53 115 82 99 98 140 211 140
390 0 190 -41 297 -158 410 -88 86 -166 133 -259 159 -63 17 -111 20 -421 23
-284 2 -357 0 -389 -11z m712 -331 c50 -15 55 -20 79 -71 22 -48 25 -66 21
-137 -4 -98 -26 -147 -87 -194 -61 -47 -98 -55 -273 -60 l-158 -5 0 247 0 248
183 -6 c125 -4 199 -11 235 -22z"/>
<path d="M15706 3793 c5 -15 9 -388 9 -828 0 -782 0 -801 -20 -834 -31 -53
-69 -76 -126 -76 l-50 0 31 -27 c60 -54 170 -32 215 44 20 32 20 51 20 843 l0
810 -22 35 c-12 19 -32 41 -44 48 -21 13 -21 13 -13 -15z"/>
<path d="M18596 3798 c14 -37 17 -1563 4 -1625 -8 -39 -20 -60 -45 -82 -36
-31 -92 -48 -122 -37 -10 3 -3 -7 15 -24 60 -55 168 -34 209 42 17 31 18 84
21 821 2 527 -1 801 -8 827 -11 40 -54 100 -72 100 -7 0 -7 -8 -2 -22z"/>
<path d="M7013 3393 c-35 -7 -79 -57 -92 -105 -9 -32 -11 -188 -9 -590 3 -627
-7 -563 108 -651 62 -48 65 -49 122 -45 44 3 64 10 84 29 57 53 58 57 65 414
8 362 16 428 67 518 34 59 93 97 153 97 20 0 67 -9 105 -21 37 -12 82 -21 100
-21 39 0 80 26 100 63 18 35 18 106 0 138 -18 33 -121 116 -174 141 -136 64
-277 45 -353 -50 l-32 -39 -28 27 c-97 94 -134 111 -216 95z"/>
<path d="M8278 3390 c-246 -45 -412 -199 -480 -447 -30 -110 -30 -325 0 -434
42 -155 114 -262 244 -359 162 -123 262 -155 453 -147 94 4 134 10 186 29 188
70 309 199 371 398 20 66 23 95 23 240 0 155 -2 170 -29 253 -48 145 -128 250
-272 353 -68 49 -133 80 -209 101 -63 17 -225 25 -287 13z m258 -301 c97 -25
152 -138 161 -329 10 -217 -57 -374 -186 -436 -45 -22 -157 -30 -205 -14 -164
54 -206 471 -67 673 65 94 180 135 297 106z"/>
<path d="M9331 3382 c-43 -21 -70 -57 -81 -108 -5 -21 -10 -267 -10 -545 0
-553 2 -579 57 -631 16 -14 50 -42 76 -62 41 -30 57 -36 99 -36 60 0 104 24
133 72 19 31 20 57 27 393 3 208 11 379 17 405 28 113 74 180 135 199 56 17
111 22 137 12 48 -18 53 -59 59 -506 6 -448 6 -450 66 -492 14 -10 41 -31 61
-47 49 -42 133 -48 182 -14 19 13 44 39 55 58 20 33 21 56 27 410 6 389 8 408
53 484 46 79 162 133 223 104 52 -25 56 -53 60 -493 5 -439 8 -459 68 -501 15
-11 43 -32 62 -49 33 -27 43 -30 104 -30 58 0 71 3 94 25 61 57 60 49 63 485
4 461 -3 538 -51 635 -27 54 -47 77 -116 132 -118 95 -226 127 -361 108 -81
-11 -170 -55 -240 -118 l-54 -49 -69 58 c-82 69 -135 95 -221 109 -121 19
-246 -14 -349 -94 -37 -29 -49 -33 -53 -21 -6 16 -88 80 -138 107 -17 10 -42
18 -56 18 -14 0 -40 -8 -59 -18z"/>
<path d="M11768 3390 c-248 -45 -416 -201 -484 -450 -26 -92 -26 -338 0 -430
31 -115 84 -208 161 -285 151 -151 287 -215 472 -223 322 -13 548 151 630 458
25 91 25 329 0 420 -32 121 -82 207 -171 296 -103 102 -187 157 -289 189 -90
29 -237 40 -319 25z m258 -301 c81 -21 136 -116 156 -271 37 -299 -90 -518
-302 -518 -99 1 -142 24 -180 100 -75 149 -78 369 -7 523 64 140 189 202 333
166z"/>
<path d="M16332 3303 c9 -19 14 -150 18 -418 4 -256 11 -402 18 -426 15 -46
50 -98 79 -116 l22 -15 -22 54 c-20 50 -22 74 -27 443 -4 284 -9 398 -19 420
-14 34 -38 63 -63 76 -16 9 -17 7 -6 -18z"/>
<path d="M17137 3278 c11 -43 13 -156 11 -583 -3 -509 -4 -531 -23 -564 -30
-51 -69 -75 -120 -76 l-44 0 24 -24 c34 -34 117 -40 163 -11 67 42 67 40 70
595 2 275 0 528 -3 562 -7 65 -32 114 -71 140 -21 14 -21 14 -7 -39z"/>
<path d="M15015 3234 c14 -21 35 -67 47 -103 20 -60 22 -96 28 -406 7 -327 8
-344 34 -435 17 -59 25 -107 21 -127 -11 -60 -122 -132 -167 -108 -7 4 2 -7
20 -24 61 -58 161 -33 206 50 l20 36 -29 114 c-28 111 -29 123 -35 449 -6 306
-9 341 -28 401 -23 70 -73 144 -116 172 l-25 17 24 -36z"/>
<path d="M13642 3223 c56 -68 63 -172 16 -220 -27 -27 -91 -46 -123 -37 -17 5
-17 3 6 -21 51 -52 163 -42 200 19 44 71 6 187 -83 257 l-43 34 27 -32z"/>
<path d="M18280 3236 c0 -2 8 -10 18 -17 15 -13 16 -12 3 4 -13 16 -21 21 -21
13z"/>
<path d="M13113 3181 c-90 -23 -144 -91 -124 -154 11 -31 38 -64 68 -81 10 -6
11 -1 3 20 -21 54 19 118 92 149 42 17 153 20 195 5 l28 -10 -25 20 c-14 11
-38 27 -53 36 -33 18 -139 27 -184 15z"/>
<path d="M14435 3159 c-64 -15 -113 -57 -176 -151 -62 -91 -66 -94 -138 -90
l-24 1 23 -24 c26 -28 75 -40 123 -31 27 5 41 18 80 79 58 90 88 120 151 148
53 23 181 32 241 16 l30 -7 -28 24 c-15 14 -44 30 -65 35 -45 13 -162 13 -217
0z"/>
<path d="M17916 3140 c-142 -45 -226 -226 -213 -459 8 -147 60 -267 140 -322
27 -19 29 -20 16 -3 -29 34 -59 102 -75 171 -19 82 -14 252 10 328 55 177 187
269 332 232 57 -15 57 -15 33 4 -64 50 -172 72 -243 49z"/>
<path d="M19243 3120 c-12 -5 -30 -21 -40 -37 -17 -25 -18 -62 -18 -524 0
-490 0 -498 21 -526 44 -59 123 -51 156 17 16 32 18 78 18 508 0 490 -2 516
-42 549 -21 18 -69 24 -95 13z"/>
<path d="M20750 3117 c-79 -19 -122 -40 -168 -81 -74 -68 -108 -195 -78 -298
34 -117 105 -175 281 -229 163 -49 188 -60 228 -99 33 -33 37 -43 37 -87 0
-100 -75 -163 -193 -163 -107 0 -144 28 -200 150 -41 90 -54 102 -103 98 -106
-9 -103 -169 6 -300 69 -83 235 -132 373 -109 131 22 220 77 269 168 73 135
53 311 -44 399 -50 44 -117 75 -256 116 -123 36 -167 56 -201 92 -29 31 -32
90 -7 129 38 57 155 85 229 53 37 -15 84 -66 103 -111 36 -87 100 -112 149
-59 52 56 24 175 -59 252 -80 74 -241 108 -366 79z"/>
<path d="M19660 3098 c-14 -7 -33 -29 -43 -48 -16 -32 -17 -73 -15 -512 3
-467 3 -477 24 -505 30 -40 74 -50 115 -27 49 29 57 66 58 262 l1 172 120 0
c134 0 204 12 270 45 96 49 141 130 148 266 9 173 -53 287 -181 336 -57 22
-459 31 -497 11z m413 -181 c46 -30 67 -75 67 -142 0 -123 -58 -164 -232 -165
l-108 0 0 166 0 166 123 -3 c97 -3 129 -8 150 -22z"/>
<path d="M12910 2698 c36 -31 130 -71 250 -108 58 -18 138 -43 178 -55 39 -13
72 -20 72 -15 0 17 -125 68 -254 104 -70 20 -160 49 -200 66 -61 25 -67 26
-46 8z"/>
<path d="M14569 2660 c-191 -48 -244 -71 -278 -119 -45 -63 -34 -157 25 -217
20 -19 38 -33 40 -31 2 2 -3 21 -12 42 -31 74 1 155 80 204 18 11 91 34 162
51 219 52 204 46 204 85 0 27 -4 35 -17 33 -10 0 -102 -22 -204 -48z"/>
<path d="M13704 2645 c38 -55 49 -108 43 -202 -9 -149 -85 -264 -212 -324
-104 -49 -176 -63 -325 -63 -142 0 -221 15 -304 55 l-41 20 25 -21 c42 -36
143 -80 221 -96 94 -20 317 -14 399 11 135 41 229 117 277 222 31 67 42 199
24 266 -14 48 -72 131 -109 155 -24 16 -24 15 2 -23z"/>
<path d="M12920 2475 c0 -3 15 -29 34 -58 31 -49 96 -119 96 -104 0 17 -91
147 -110 157 -11 6 -20 8 -20 5z"/>
<path d="M16778 2197 c-79 -80 -160 -122 -266 -137 -80 -11 -175 -1 -241 25
l-36 15 30 -25 c72 -60 226 -89 347 -66 75 15 157 57 214 109 l42 37 -12 55
-11 55 -67 -68z"/>
<path d="M18236 2193 c-144 -137 -328 -177 -501 -108 -54 22 -57 22 -35 4 81
-65 185 -94 312 -87 77 5 99 11 161 41 40 20 91 53 113 74 l41 38 -11 52 -11
51 -69 -65z"/>
<path d="M14755 2198 c-168 -131 -387 -178 -558 -121 -31 11 -57 19 -57 17 0
-10 106 -65 149 -78 69 -20 196 -20 280 -1 70 17 197 79 250 124 l34 28 -24
35 -24 35 -50 -39z"/>
<path d="M18477 1392 c-81 -389 -81 -392 23 -392 42 0 44 2 54 42 5 24 3 27
-21 30 -21 2 -29 9 -30 28 -2 14 26 159 60 323 l63 297 -40 0 -41 0 -68 -328z"/>
<path d="M13524 1662 c-89 -37 -128 -93 -129 -183 0 -82 35 -117 161 -159 50
-17 99 -39 107 -48 40 -44 28 -126 -24 -163 -49 -35 -142 -45 -235 -27 -43 8
-80 15 -81 14 -2 -2 -6 -16 -9 -33 -5 -27 -3 -32 28 -43 58 -21 207 -25 271
-6 115 33 185 142 158 244 -16 57 -64 95 -162 127 -98 33 -129 59 -129 110 0
47 40 89 101 106 42 11 163 2 211 -16 22 -9 37 53 17 66 -50 31 -221 38 -285
11z"/>
<path d="M15243 1638 l-9 -43 39 -3 c22 -2 41 -2 43 0 2 2 6 23 10 46 l7 42
-41 0 c-40 0 -41 -1 -49 -42z"/>
<path d="M15873 1638 l-9 -43 39 -3 c22 -2 41 -2 43 0 2 2 6 23 10 46 l7 42
-41 0 c-40 0 -41 -1 -49 -42z"/>
<path d="M17593 1638 l-9 -43 39 -3 c22 -2 41 -2 43 0 2 2 6 23 10 46 l7 42
-41 0 c-40 0 -41 -1 -49 -42z"/>
<path d="M18763 1638 l-9 -43 39 -3 c22 -2 41 -2 43 0 2 2 6 23 10 46 l7 42
-41 0 c-40 0 -41 -1 -49 -42z"/>
<path d="M19773 1638 l-9 -43 39 -3 c22 -2 41 -2 43 0 2 2 6 23 10 46 l7 42
-41 0 c-40 0 -41 -1 -49 -42z"/>
<path d="M20001 1560 c-6 -28 -11 -58 -11 -65 0 -11 -13 -15 -50 -15 -33 0
-50 -4 -50 -12 0 -7 -3 -23 -6 -35 -6 -22 -3 -23 41 -23 46 0 47 -1 40 -27
-20 -80 -55 -270 -55 -297 1 -60 40 -86 130 -86 56 0 61 2 70 26 19 49 14 55
-37 49 -34 -5 -54 -2 -67 8 -19 14 -19 16 -2 103 10 49 25 119 33 157 l15 67
64 0 c56 0 64 2 64 19 0 11 3 26 6 35 5 14 -3 16 -56 16 l-63 0 7 43 c4 23 9
52 13 65 5 20 2 22 -35 22 l-40 0 -11 -50z"/>
<path d="M14029 1463 c-121 -62 -186 -255 -126 -373 39 -79 141 -109 262 -79
36 9 44 15 49 41 3 17 6 34 6 38 0 4 -28 0 -63 -8 -111 -26 -183 5 -194 84
l-5 41 78 6 c114 9 176 30 213 72 54 61 37 156 -33 189 -53 25 -123 21 -187
-11z m149 -59 c43 -30 20 -85 -45 -103 -16 -5 -57 -12 -91 -16 -73 -8 -78 0
-33 62 47 65 122 90 169 57z"/>
<path d="M14550 1469 c-19 -11 -41 -28 -47 -37 -11 -14 -13 -11 -13 16 0 30
-2 32 -35 32 -19 0 -35 -4 -35 -8 0 -5 -20 -105 -45 -222 -25 -117 -45 -219
-45 -227 0 -8 13 -13 38 -13 l38 0 28 138 c16 75 37 153 47 174 24 48 67 77
124 85 26 3 48 11 50 17 19 63 18 66 -27 66 -26 0 -57 -9 -78 -21z"/>
<path d="M15504 1471 c-144 -65 -215 -314 -120 -420 43 -49 145 -66 226 -38
29 10 36 18 41 50 5 32 4 37 -10 32 -96 -38 -179 -27 -207 27 -36 70 11 225
82 269 46 28 92 33 144 15 24 -8 46 -14 48 -12 1 2 5 19 8 38 6 33 4 35 -34
46 -57 17 -131 14 -178 -7z"/>
<path d="M16145 1472 c-98 -46 -172 -188 -163 -312 5 -64 22 -98 71 -134 37
-27 125 -33 181 -12 163 62 231 357 103 450 -39 29 -139 33 -192 8z m135 -67
c34 -18 44 -43 42 -113 -2 -60 -31 -134 -69 -174 -48 -50 -123 -59 -165 -21
-63 56 -9 257 82 305 42 22 72 23 110 3z"/>
<path d="M16580 1468 c-57 -29 -83 -75 -77 -136 6 -55 27 -77 98 -103 32 -12
67 -31 79 -44 65 -69 -56 -141 -170 -101 -50 17 -57 14 -62 -28 -3 -25 1 -31
32 -42 59 -21 159 -17 210 9 63 32 85 66 85 134 0 50 -3 58 -33 83 -18 15 -50
32 -72 39 -60 18 -95 51 -86 84 7 29 51 57 89 57 13 0 46 -7 73 -15 54 -16 66
-9 62 34 -6 51 -148 69 -228 29z"/>
<path d="M17180 1468 c-57 -29 -83 -75 -77 -136 6 -55 27 -77 98 -103 32 -12
67 -31 79 -44 65 -69 -56 -141 -170 -101 -50 17 -57 14 -62 -28 -3 -25 1 -31
32 -42 59 -21 159 -17 210 9 63 32 85 66 85 134 0 50 -3 58 -33 83 -18 15 -50
32 -72 39 -60 18 -95 51 -86 84 7 29 51 57 89 57 13 0 46 -7 73 -15 54 -16 66
-9 62 34 -6 51 -148 69 -228 29z"/>
<path d="M17920 1475 c-19 -9 -45 -26 -57 -37 l-23 -21 0 31 c0 30 -2 32 -35
32 -19 0 -35 -4 -35 -8 0 -5 -20 -105 -45 -222 -25 -117 -45 -219 -45 -227 0
-8 13 -13 38 -13 l38 0 28 138 c16 75 37 154 47 174 26 50 76 87 131 94 38 5
49 3 67 -15 11 -11 21 -29 21 -39 0 -15 -43 -232 -65 -329 -5 -21 -2 -23 34
-23 29 0 41 5 45 18 2 9 19 86 36 171 36 173 36 220 -4 259 -32 32 -122 41
-176 17z"/>
<path d="M19100 1479 c-14 -6 -37 -22 -52 -36 l-28 -27 0 32 c0 30 -2 32 -35
32 -19 0 -35 -4 -35 -8 0 -5 -20 -105 -45 -222 -25 -117 -45 -219 -45 -227 0
-8 13 -13 38 -13 l39 0 28 138 c31 154 50 200 98 236 66 50 147 40 147 -19 0
-22 -54 -295 -66 -337 -4 -15 1 -18 35 -18 46 0 41 -11 76 160 15 68 33 136
40 151 35 67 127 115 174 90 30 -16 28 -68 -9 -244 -16 -80 -30 -147 -30 -151
0 -3 18 -6 40 -6 22 0 40 2 40 6 0 3 16 84 36 181 39 190 38 228 -6 268 -46
42 -168 25 -220 -30 -26 -28 -40 -32 -40 -11 0 8 -14 26 -31 40 -24 20 -41 26
-77 25 -26 0 -58 -5 -72 -10z"/>
<path d="M20369 1463 c-121 -62 -186 -255 -126 -373 39 -79 141 -109 262 -79
36 9 44 15 49 41 3 17 6 34 6 38 0 4 -28 0 -63 -8 -111 -26 -183 5 -194 84
l-5 41 78 6 c114 9 176 30 213 72 54 61 37 156 -33 189 -53 25 -123 21 -187
-11z m149 -59 c43 -30 20 -85 -45 -103 -16 -5 -57 -12 -91 -16 -73 -8 -78 0
-33 62 47 65 122 90 169 57z"/>
<path d="M20780 1468 c-57 -29 -83 -75 -77 -136 6 -55 27 -77 98 -103 32 -12
67 -31 79 -44 65 -69 -56 -141 -170 -101 -50 17 -57 14 -62 -28 -3 -25 1 -31
32 -42 59 -21 159 -17 210 9 63 32 85 66 85 134 0 50 -3 58 -33 83 -18 15 -50
32 -72 39 -60 18 -95 51 -86 84 7 29 51 57 89 57 13 0 46 -7 73 -15 54 -16 66
-9 62 34 -6 51 -148 69 -228 29z"/>
<path d="M14680 1471 c0 -11 88 -418 96 -443 4 -13 16 -18 42 -18 l38 0 124
212 c69 116 131 222 138 235 13 24 13 24 -35 21 l-48 -3 -102 -184 c-82 -147
-103 -179 -107 -160 -3 13 -20 97 -38 187 l-32 162 -38 0 c-21 0 -38 -4 -38
-9z"/>
<path d="M15210 1473 c0 -5 -20 -105 -45 -223 -25 -118 -45 -220 -45 -227 0
-8 14 -13 38 -13 l38 0 44 213 c24 116 45 222 48 235 4 20 1 22 -37 22 -22 0
-41 -3 -41 -7z"/>
<path d="M15840 1473 c0 -5 -20 -105 -45 -223 -25 -118 -45 -220 -45 -227 0
-8 14 -13 38 -13 l38 0 44 213 c24 116 45 222 48 235 4 20 1 22 -37 22 -22 0
-41 -3 -41 -7z"/>
<path d="M17560 1473 c0 -5 -20 -105 -45 -223 -25 -118 -45 -220 -45 -227 0
-8 14 -13 38 -13 l38 0 44 213 c24 116 45 222 48 235 4 20 1 22 -37 22 -22 0
-41 -3 -41 -7z"/>
<path d="M18730 1473 c0 -5 -20 -105 -45 -223 -25 -118 -45 -220 -45 -227 0
-8 14 -13 38 -13 l38 0 44 213 c24 116 45 222 48 235 4 20 1 22 -37 22 -22 0
-41 -3 -41 -7z"/>
<path d="M19740 1473 c0 -5 -20 -105 -45 -223 -25 -118 -45 -220 -45 -227 0
-8 14 -13 38 -13 l38 0 44 213 c24 116 45 222 48 235 4 20 1 22 -37 22 -22 0
-41 -3 -41 -7z"/>
</g>
</svg>
